<svg xmlns="http://www.w3.org/2000/svg" width="78" height="52" viewBox="0 0 78 52">
    <g fill="none" fill-rule="evenodd">
        <g fill-rule="nonzero">
            <g>
                <g>
                    <path fill="#E6E6E6" d="M30.104 7.082l-1.6-1.596c-1.584-1.587-3.493-1.615-5.273.166L21.965 6.92c-1.782 1.78-1.753 3.685-.168 5.273l1.599 1.596c1.586 1.591 3.493 1.618 5.272-.162l1.268-1.27c1.782-1.78 1.753-3.686.168-5.275zm-8.014 8.013l-1.6-1.595c-1.587-1.588-3.492-1.617-5.271.165l-1.269 1.27c-1.782 1.779-1.753 3.682-.167 5.272l5.13 5.127c.592.59 1.259.503 1.715.049.455-.456.532-1.11-.059-1.705l-1.18-1.176c.321-.068.716-.313 1.18-.777l1.354-1.355c1.784-1.78 1.753-3.686.167-5.275zm-6.36 9.96l-3.396-3.397c-1.588-1.587-3.492-1.616-5.274.164l-1.268 1.266c-1.781 1.781-1.753 3.688-.165 5.276l3.395 3.4c.595.59 1.259.502 1.715.05.453-.458.532-1.118-.062-1.706l-3.366-3.37c-.638-.637-.618-1.237.099-1.953l1.345-1.345c.715-.717 1.318-.738 1.955-.097l3.367 3.366c.589.592 1.249.513 1.704.06.456-.458.544-1.122-.049-1.715zm34.68 4.282L29.339 50.409c-2.121 2.122-4.556 2.122-6.676 0L1.592 29.338c-2.123-2.121-2.123-4.553 0-6.676l21.07-21.068c2.124-2.124 4.555-2.124 6.676 0L50.41 22.662c2.122 2.12 2.122 4.553 0 6.675zM26.88 7.169c-.64-.639-1.24-.62-1.956.098L23.58 8.614c-.714.713-.736 1.316-.095 1.952l1.537 1.54c.64.64 1.238.62 1.956-.097l1.346-1.346c.712-.714.733-1.317.096-1.954l-1.538-1.54zm-6.475 9.554c.639.637.618 1.24-.098 1.954l-1.344 1.346c-.72.716-1.314.736-1.955.096l-1.54-1.54c-.637-.637-.62-1.238.096-1.953l1.344-1.346c.72-.718 1.318-.734 1.958-.097l1.539 1.54z" transform="translate(-682 -51) translate(107 47) translate(575 4)"/>
                    <path fill="#D9151B" d="M20.405 16.723l-1.539-1.54c-.64-.637-1.238-.62-1.958.097l-1.344 1.346c-.716.715-.733 1.316-.095 1.953l1.54 1.54c.64.64 1.234.62 1.954-.096l1.344-1.346c.716-.714.737-1.317.098-1.954zm1.685-1.628c1.586 1.59 1.617 3.495-.167 5.275l-1.354 1.355c-.464.464-.859.709-1.18.777l1.18 1.176c.59.595.514 1.25.059 1.704-.456.455-1.123.542-1.715-.048l-5.13-5.127c-1.586-1.59-1.615-3.493.167-5.272l1.269-1.27c1.778-1.782 3.684-1.753 5.27-.164l1.601 1.594zm6.33-6.386l-1.54-1.54c-.64-.639-1.24-.62-1.956.098L23.58 8.614c-.714.713-.736 1.316-.095 1.952l1.537 1.54c.64.64 1.238.62 1.956-.097l1.346-1.346c.712-.714.733-1.317.096-1.954zm1.684-1.627c1.585 1.589 1.614 3.495-.168 5.276l-1.268 1.27c-1.779 1.78-3.686 1.752-5.272.16l-1.6-1.595c-1.584-1.588-1.613-3.493.169-5.273l1.266-1.268c1.78-1.781 3.689-1.753 5.273-.166l1.6 1.596zM15.73 25.054c.593.593.505 1.257.049 1.714-.455.454-1.115.533-1.704-.06l-3.367-3.365c-.637-.64-1.24-.62-1.955.097l-1.345 1.345c-.717.716-.737 1.316-.099 1.953l3.366 3.37c.594.588.515 1.248.062 1.705-.456.453-1.12.542-1.715-.05l-3.395-3.4c-1.588-1.587-1.616-3.494.165-5.275l1.268-1.266c1.782-1.78 3.686-1.751 5.274-.164l3.396 3.396zM27.209 22.662c-2.121 2.121-2.121 4.553 0 6.675l21.07 21.072c2.124 2.122 4.555 2.122 6.678 0l21.071-21.072c2.121-2.122 2.12-4.555 0-6.675l-21.07-21.07c-2.124-2.123-4.555-2.123-6.676 0l-21.073 21.07z" transform="translate(-682 -51) translate(107 47) translate(575 4)"/>
                    <path fill="#FFF" d="M57.712 34.494c1.531 0 2.313-.955 2.313-2.14v-6.783c0-1.185-.78-2.142-2.313-2.14l-12.248-.002c-1.492.001-2.255.936-2.254 2.085-.002 1.146.762 2.083 2.254 2.084l9.497-.001c.325 0 .517.172.518.553l-.002 1.624c.002.382-.191.553-.517.553h-9.44c-1.53 0-2.312.957-2.312 2.142v6.785c.002 1.185.784 2.14 2.314 2.14H57.77c1.49 0 2.255-.94 2.255-2.085s-.766-2.081-2.255-2.081H48.27c-.324 0-.513-.172-.513-.555v-1.624c0-.38.19-.556.514-.555h9.44zM38.675 15.76c0-.358.155-.562.502-.658.632-.18 1.303-.264 1.888-.264.275 0 .574.013.861.05.3.035.454.202.454.453 0 .048-.012.167-.024.228l-.024.119c-.071.335-.168.478-.454.478-.167 0-.467-.048-.801-.048-.287 0-.706.036-.969.119v4.245c0 .37-.155.525-.525.525H39.2c-.37 0-.525-.155-.525-.526V15.76zM46.827 18.401c-.274-.083-.646-.13-1.028-.13-.945 0-1.398.285-1.398.907 0 .61.442.884 1.422.884.346 0 .73-.034 1.004-.119v-1.542zm-3.275-2.593c-.037-.096-.047-.18-.047-.251 0-.228.167-.348.333-.418.407-.18 1.221-.3 1.89-.3 1.673 0 2.523.73 2.523 2.487v2.977c0 .429-.216.549-.516.62-.405.096-1.421.203-2.103.203-1.662 0-2.678-.633-2.678-1.96 0-1.339 1.04-1.949 2.582-1.949.61 0 1.053.097 1.291.156v-.18c0-.74-.37-1.17-1.339-1.17-.478 0-.848.107-1.195.214-.107.037-.202.06-.286.06-.192 0-.299-.108-.407-.37l-.048-.119zM53.607 16.201c-.216-.071-.55-.118-.849-.118-1.255 0-1.794.764-1.794 1.912 0 1.147.539 1.912 1.794 1.912.298 0 .633-.047.849-.119v-3.587zm0-3.154c0-.372.156-.527.526-.527h.381c.37 0 .527.155.527.527v7.219c0 .394-.192.55-.49.646-.394.13-1.208.214-1.769.214-2.152 0-3.276-1.195-3.276-3.119 0-1.96 1.171-3.169 3.084-3.169.43 0 .777.061 1.017.133v-1.924zM56.584 15.484c0-.37.154-.525.526-.525h.383c.37 0 .525.155.525.525v4.998c0 .37-.155.525-.526.525h-.382c-.371 0-.526-.155-.526-.526v-4.997zm.717-3.083c.526 0 .885.347.885.86 0 .515-.359.861-.885.861s-.884-.346-.884-.86.358-.861.884-.861zM64.043 17.983c0-1.22-.551-1.912-1.543-1.912-.992 0-1.542.692-1.542 1.912 0 1.231.55 1.912 1.542 1.912s1.543-.681 1.543-1.912zm-4.542 0c0-2.044 1.183-3.145 2.999-3.145 1.817 0 3 1.101 3 3.145 0 2.056-1.183 3.143-3 3.143-1.816 0-2.999-1.087-2.999-3.143z" transform="translate(-682 -51) translate(107 47) translate(575 4)"/>
                </g>
            </g>
        </g>
    </g>
</svg>
